<mxfile host="Electron" agent="Mozilla/5.0 (Windows NT 10.0; Win64; x64) AppleWebKit/537.36 (KHTML, like Gecko) draw.io/24.7.17 Chrome/128.0.6613.36 Electron/32.0.1 Safari/537.36" version="24.7.17">
  <diagram name="ページ1" id="bPrPKnVmRq3N5PN19LUr">
    <mxGraphModel dx="780" dy="496" grid="1" gridSize="10" guides="1" tooltips="1" connect="1" arrows="1" fold="1" page="1" pageScale="1" pageWidth="827" pageHeight="1169" math="0" shadow="0">
      <root>
        <mxCell id="0" />
        <mxCell id="1" parent="0" />
        <mxCell id="2QZLSGWXenHFC3jgTNZq-1" value="" style="shape=umlActor;verticalLabelPosition=bottom;verticalAlign=top;html=1;outlineConnect=0;" vertex="1" parent="1">
          <mxGeometry x="290" y="180" width="30" height="60" as="geometry" />
        </mxCell>
        <mxCell id="2QZLSGWXenHFC3jgTNZq-2" value="" style="html=1;points=[[0,0,0,0,5],[0,1,0,0,-5],[1,0,0,0,5],[1,1,0,0,-5]];perimeter=orthogonalPerimeter;outlineConnect=0;targetShapes=umlLifeline;portConstraint=eastwest;newEdgeStyle={&quot;curved&quot;:0,&quot;rounded&quot;:0};" vertex="1" parent="1">
          <mxGeometry x="300" y="280" width="10" height="90" as="geometry" />
        </mxCell>
        <mxCell id="2QZLSGWXenHFC3jgTNZq-3" value="" style="endArrow=none;dashed=1;html=1;rounded=0;" edge="1" parent="1" source="2QZLSGWXenHFC3jgTNZq-2" target="2QZLSGWXenHFC3jgTNZq-1">
          <mxGeometry width="50" height="50" relative="1" as="geometry">
            <mxPoint x="380" y="280" as="sourcePoint" />
            <mxPoint x="430" y="230" as="targetPoint" />
          </mxGeometry>
        </mxCell>
        <mxCell id="2QZLSGWXenHFC3jgTNZq-4" value="" style="endArrow=none;dashed=1;html=1;rounded=0;" edge="1" parent="1" source="2QZLSGWXenHFC3jgTNZq-40" target="2QZLSGWXenHFC3jgTNZq-2">
          <mxGeometry width="50" height="50" relative="1" as="geometry">
            <mxPoint x="305" y="490" as="sourcePoint" />
            <mxPoint x="304.5" y="370" as="targetPoint" />
          </mxGeometry>
        </mxCell>
        <mxCell id="2QZLSGWXenHFC3jgTNZq-5" value="" style="shape=umlBoundary;whiteSpace=wrap;html=1;fillColor=#d5e8d4;strokeColor=#82b366;" vertex="1" parent="1">
          <mxGeometry x="380" y="160" width="100" height="80" as="geometry" />
        </mxCell>
        <mxCell id="2QZLSGWXenHFC3jgTNZq-6" value="" style="endArrow=none;dashed=1;html=1;rounded=0;entryX=0.607;entryY=0.996;entryDx=0;entryDy=0;entryPerimeter=0;fillColor=#d5e8d4;strokeColor=#82b366;" edge="1" parent="1" source="2QZLSGWXenHFC3jgTNZq-9" target="2QZLSGWXenHFC3jgTNZq-5">
          <mxGeometry width="50" height="50" relative="1" as="geometry">
            <mxPoint x="441" y="320" as="sourcePoint" />
            <mxPoint x="440" y="250" as="targetPoint" />
          </mxGeometry>
        </mxCell>
        <mxCell id="2QZLSGWXenHFC3jgTNZq-8" value="メニュー画面" style="edgeLabel;html=1;align=center;verticalAlign=middle;resizable=0;points=[];" vertex="1" connectable="0" parent="2QZLSGWXenHFC3jgTNZq-6">
          <mxGeometry x="0.5519" y="-2" relative="1" as="geometry">
            <mxPoint x="-3" y="-8" as="offset" />
          </mxGeometry>
        </mxCell>
        <mxCell id="2QZLSGWXenHFC3jgTNZq-9" value="" style="html=1;points=[[0,0,0,0,5],[0,1,0,0,-5],[1,0,0,0,5],[1,1,0,0,-5]];perimeter=orthogonalPerimeter;outlineConnect=0;targetShapes=umlLifeline;portConstraint=eastwest;newEdgeStyle={&quot;curved&quot;:0,&quot;rounded&quot;:0};" vertex="1" parent="1">
          <mxGeometry x="435" y="300" width="10" height="60" as="geometry" />
        </mxCell>
        <mxCell id="2QZLSGWXenHFC3jgTNZq-11" value="" style="endArrow=classic;html=1;rounded=0;entryX=0;entryY=0;entryDx=0;entryDy=5;entryPerimeter=0;" edge="1" parent="1" source="2QZLSGWXenHFC3jgTNZq-2" target="2QZLSGWXenHFC3jgTNZq-9">
          <mxGeometry width="50" height="50" relative="1" as="geometry">
            <mxPoint x="380" y="280" as="sourcePoint" />
            <mxPoint x="430" y="230" as="targetPoint" />
          </mxGeometry>
        </mxCell>
        <mxCell id="2QZLSGWXenHFC3jgTNZq-12" value="" style="endArrow=none;dashed=1;html=1;rounded=0;fillColor=#d5e8d4;strokeColor=#82b366;" edge="1" parent="1" target="2QZLSGWXenHFC3jgTNZq-9">
          <mxGeometry width="50" height="50" relative="1" as="geometry">
            <mxPoint x="440" y="520" as="sourcePoint" />
            <mxPoint x="439.5" y="410" as="targetPoint" />
          </mxGeometry>
        </mxCell>
        <mxCell id="2QZLSGWXenHFC3jgTNZq-14" value="" style="shape=umlBoundary;whiteSpace=wrap;html=1;fillColor=#d5e8d4;strokeColor=#82b366;" vertex="1" parent="1">
          <mxGeometry x="530" y="160" width="100" height="80" as="geometry" />
        </mxCell>
        <mxCell id="2QZLSGWXenHFC3jgTNZq-15" value="" style="endArrow=none;dashed=1;html=1;rounded=0;entryX=0.6;entryY=0.996;entryDx=0;entryDy=0;entryPerimeter=0;fillColor=#d5e8d4;strokeColor=#82b366;" edge="1" parent="1" source="2QZLSGWXenHFC3jgTNZq-37" target="2QZLSGWXenHFC3jgTNZq-14">
          <mxGeometry width="50" height="50" relative="1" as="geometry">
            <mxPoint x="590" y="480" as="sourcePoint" />
            <mxPoint x="590" y="250" as="targetPoint" />
          </mxGeometry>
        </mxCell>
        <mxCell id="2QZLSGWXenHFC3jgTNZq-16" value="学生登録画面" style="edgeLabel;html=1;align=center;verticalAlign=middle;resizable=0;points=[];" vertex="1" connectable="0" parent="2QZLSGWXenHFC3jgTNZq-15">
          <mxGeometry x="0.5519" y="-2" relative="1" as="geometry">
            <mxPoint x="-7" y="-7" as="offset" />
          </mxGeometry>
        </mxCell>
        <mxCell id="2QZLSGWXenHFC3jgTNZq-17" value="" style="ellipse;shape=umlControl;whiteSpace=wrap;html=1;fillColor=#f8cecc;strokeColor=#b85450;" vertex="1" parent="1">
          <mxGeometry x="690" y="160" width="70" height="80" as="geometry" />
        </mxCell>
        <mxCell id="2QZLSGWXenHFC3jgTNZq-18" value="" style="endArrow=none;dashed=1;html=1;rounded=0;entryX=0.467;entryY=0.996;entryDx=0;entryDy=0;entryPerimeter=0;fillColor=#f8cecc;strokeColor=#b85450;" edge="1" parent="1" source="2QZLSGWXenHFC3jgTNZq-45" target="2QZLSGWXenHFC3jgTNZq-17">
          <mxGeometry width="50" height="50" relative="1" as="geometry">
            <mxPoint x="723" y="480" as="sourcePoint" />
            <mxPoint x="724.5" y="260" as="targetPoint" />
          </mxGeometry>
        </mxCell>
        <mxCell id="2QZLSGWXenHFC3jgTNZq-19" value="学生情報登録" style="edgeLabel;html=1;align=center;verticalAlign=middle;resizable=0;points=[];" vertex="1" connectable="0" parent="2QZLSGWXenHFC3jgTNZq-18">
          <mxGeometry x="0.5519" y="-2" relative="1" as="geometry">
            <mxPoint x="-2" y="-35" as="offset" />
          </mxGeometry>
        </mxCell>
        <mxCell id="2QZLSGWXenHFC3jgTNZq-20" value="" style="ellipse;shape=umlEntity;whiteSpace=wrap;html=1;align=center;fillColor=#dae8fc;strokeColor=#6c8ebf;" vertex="1" parent="1">
          <mxGeometry x="800" y="160" width="80" height="80" as="geometry" />
        </mxCell>
        <mxCell id="2QZLSGWXenHFC3jgTNZq-21" value="" style="endArrow=none;dashed=1;html=1;rounded=0;fillColor=#dae8fc;strokeColor=#6c8ebf;" edge="1" parent="1" source="2QZLSGWXenHFC3jgTNZq-48" target="2QZLSGWXenHFC3jgTNZq-20">
          <mxGeometry width="50" height="50" relative="1" as="geometry">
            <mxPoint x="840.75" y="600" as="sourcePoint" />
            <mxPoint x="839.25" y="280" as="targetPoint" />
          </mxGeometry>
        </mxCell>
        <mxCell id="2QZLSGWXenHFC3jgTNZq-22" value="学生オブジェクト" style="edgeLabel;html=1;align=center;verticalAlign=middle;resizable=0;points=[];" vertex="1" connectable="0" parent="2QZLSGWXenHFC3jgTNZq-21">
          <mxGeometry x="0.5519" y="-2" relative="1" as="geometry">
            <mxPoint x="-2" y="-37" as="offset" />
          </mxGeometry>
        </mxCell>
        <mxCell id="2QZLSGWXenHFC3jgTNZq-23" value="" style="html=1;points=[[0,0,0,0,5],[0,1,0,0,-5],[1,0,0,0,5],[1,1,0,0,-5]];perimeter=orthogonalPerimeter;outlineConnect=0;targetShapes=umlLifeline;portConstraint=eastwest;newEdgeStyle={&quot;curved&quot;:0,&quot;rounded&quot;:0};" vertex="1" parent="1">
          <mxGeometry x="285" y="620" width="10" height="80" as="geometry" />
        </mxCell>
        <mxCell id="2QZLSGWXenHFC3jgTNZq-24" value="活性区間&lt;div&gt;Activation Bar&lt;/div&gt;" style="text;align=left;fontStyle=1;verticalAlign=middle;spacingLeft=3;spacingRight=3;strokeColor=none;rotatable=0;points=[[0,0.5],[1,0.5]];portConstraint=eastwest;html=1;" vertex="1" parent="1">
          <mxGeometry x="305" y="632" width="80" height="26" as="geometry" />
        </mxCell>
        <mxCell id="2QZLSGWXenHFC3jgTNZq-25" value="" style="endArrow=none;dashed=1;html=1;rounded=0;" edge="1" parent="1">
          <mxGeometry width="50" height="50" relative="1" as="geometry">
            <mxPoint x="428" y="705" as="sourcePoint" />
            <mxPoint x="428" y="620" as="targetPoint" />
          </mxGeometry>
        </mxCell>
        <mxCell id="2QZLSGWXenHFC3jgTNZq-28" value="生存線&lt;div&gt;Life line&lt;/div&gt;" style="text;align=center;fontStyle=1;verticalAlign=middle;spacingLeft=3;spacingRight=3;strokeColor=none;rotatable=0;points=[[0,0.5],[1,0.5]];portConstraint=eastwest;html=1;" vertex="1" parent="1">
          <mxGeometry x="429" y="632" width="80" height="26" as="geometry" />
        </mxCell>
        <mxCell id="2QZLSGWXenHFC3jgTNZq-29" value="" style="endArrow=classic;html=1;rounded=0;" edge="1" parent="1">
          <mxGeometry width="50" height="50" relative="1" as="geometry">
            <mxPoint x="260" y="770" as="sourcePoint" />
            <mxPoint x="325" y="770" as="targetPoint" />
          </mxGeometry>
        </mxCell>
        <mxCell id="2QZLSGWXenHFC3jgTNZq-31" value="操作()&lt;div&gt;method&lt;/div&gt;" style="text;align=center;fontStyle=1;verticalAlign=middle;spacingLeft=3;spacingRight=3;strokeColor=none;rotatable=0;points=[[0,0.5],[1,0.5]];portConstraint=eastwest;html=1;" vertex="1" parent="1">
          <mxGeometry x="250" y="730" width="80" height="26" as="geometry" />
        </mxCell>
        <mxCell id="2QZLSGWXenHFC3jgTNZq-32" value="メッセージ&lt;div&gt;massage&lt;/div&gt;" style="text;align=center;fontStyle=1;verticalAlign=middle;spacingLeft=3;spacingRight=3;strokeColor=none;rotatable=0;points=[[0,0.5],[1,0.5]];portConstraint=eastwest;html=1;" vertex="1" parent="1">
          <mxGeometry x="385" y="730" width="80" height="26" as="geometry" />
        </mxCell>
        <mxCell id="2QZLSGWXenHFC3jgTNZq-34" value="kaisetu" style="swimlane;whiteSpace=wrap;html=1;" vertex="1" parent="1">
          <mxGeometry x="250" y="590" width="295" height="200" as="geometry" />
        </mxCell>
        <mxCell id="2QZLSGWXenHFC3jgTNZq-35" value="学生登録を選択()" style="text;html=1;align=center;verticalAlign=middle;whiteSpace=wrap;rounded=0;" vertex="1" parent="1">
          <mxGeometry x="320" y="280" width="100" height="30" as="geometry" />
        </mxCell>
        <mxCell id="2QZLSGWXenHFC3jgTNZq-36" value="" style="endArrow=classic;html=1;rounded=0;" edge="1" parent="1" target="2QZLSGWXenHFC3jgTNZq-37">
          <mxGeometry width="50" height="50" relative="1" as="geometry">
            <mxPoint x="450" y="320" as="sourcePoint" />
            <mxPoint x="560" y="330" as="targetPoint" />
          </mxGeometry>
        </mxCell>
        <mxCell id="2QZLSGWXenHFC3jgTNZq-38" value="" style="endArrow=none;dashed=1;html=1;rounded=0;entryX=0.6;entryY=0.996;entryDx=0;entryDy=0;entryPerimeter=0;fillColor=#d5e8d4;strokeColor=#82b366;" edge="1" parent="1" target="2QZLSGWXenHFC3jgTNZq-37">
          <mxGeometry width="50" height="50" relative="1" as="geometry">
            <mxPoint x="590" y="560" as="sourcePoint" />
            <mxPoint x="590" y="240" as="targetPoint" />
          </mxGeometry>
        </mxCell>
        <mxCell id="2QZLSGWXenHFC3jgTNZq-37" value="" style="html=1;points=[[0,0,0,0,5],[0,1,0,0,-5],[1,0,0,0,5],[1,1,0,0,-5]];perimeter=orthogonalPerimeter;outlineConnect=0;targetShapes=umlLifeline;portConstraint=eastwest;newEdgeStyle={&quot;curved&quot;:0,&quot;rounded&quot;:0};" vertex="1" parent="1">
          <mxGeometry x="585" y="315" width="10" height="30" as="geometry" />
        </mxCell>
        <mxCell id="2QZLSGWXenHFC3jgTNZq-41" value="" style="endArrow=none;dashed=1;html=1;rounded=0;" edge="1" parent="1" target="2QZLSGWXenHFC3jgTNZq-40">
          <mxGeometry width="50" height="50" relative="1" as="geometry">
            <mxPoint x="305" y="550" as="sourcePoint" />
            <mxPoint x="305" y="370" as="targetPoint" />
          </mxGeometry>
        </mxCell>
        <mxCell id="2QZLSGWXenHFC3jgTNZq-40" value="" style="html=1;points=[[0,0,0,0,5],[0,1,0,0,-5],[1,0,0,0,5],[1,1,0,0,-5]];perimeter=orthogonalPerimeter;outlineConnect=0;targetShapes=umlLifeline;portConstraint=eastwest;newEdgeStyle={&quot;curved&quot;:0,&quot;rounded&quot;:0};" vertex="1" parent="1">
          <mxGeometry x="300" y="400" width="10" height="110" as="geometry" />
        </mxCell>
        <mxCell id="2QZLSGWXenHFC3jgTNZq-43" value="" style="endArrow=none;dashed=1;html=1;rounded=0;fillColor=#d5e8d4;strokeColor=#82b366;" edge="1" parent="1">
          <mxGeometry width="50" height="50" relative="1" as="geometry">
            <mxPoint x="440" y="550" as="sourcePoint" />
            <mxPoint x="440" y="500" as="targetPoint" />
            <Array as="points">
              <mxPoint x="440" y="530" />
            </Array>
          </mxGeometry>
        </mxCell>
        <mxCell id="2QZLSGWXenHFC3jgTNZq-42" value="" style="html=1;points=[[0,0,0,0,5],[0,1,0,0,-5],[1,0,0,0,5],[1,1,0,0,-5]];perimeter=orthogonalPerimeter;outlineConnect=0;targetShapes=umlLifeline;portConstraint=eastwest;newEdgeStyle={&quot;curved&quot;:0,&quot;rounded&quot;:0};" vertex="1" parent="1">
          <mxGeometry x="585" y="420" width="10" height="70" as="geometry" />
        </mxCell>
        <mxCell id="2QZLSGWXenHFC3jgTNZq-44" value="" style="endArrow=classic;html=1;rounded=0;" edge="1" parent="1" target="2QZLSGWXenHFC3jgTNZq-42">
          <mxGeometry width="50" height="50" relative="1" as="geometry">
            <mxPoint x="320" y="420" as="sourcePoint" />
            <mxPoint x="455" y="419" as="targetPoint" />
          </mxGeometry>
        </mxCell>
        <mxCell id="2QZLSGWXenHFC3jgTNZq-46" value="" style="endArrow=none;dashed=1;html=1;rounded=0;entryX=0.467;entryY=0.996;entryDx=0;entryDy=0;entryPerimeter=0;fillColor=#f8cecc;strokeColor=#b85450;" edge="1" parent="1" target="2QZLSGWXenHFC3jgTNZq-45">
          <mxGeometry width="50" height="50" relative="1" as="geometry">
            <mxPoint x="723" y="560" as="sourcePoint" />
            <mxPoint x="723" y="240" as="targetPoint" />
          </mxGeometry>
        </mxCell>
        <mxCell id="2QZLSGWXenHFC3jgTNZq-45" value="" style="html=1;points=[[0,0,0,0,5],[0,1,0,0,-5],[1,0,0,0,5],[1,1,0,0,-5]];perimeter=orthogonalPerimeter;outlineConnect=0;targetShapes=umlLifeline;portConstraint=eastwest;newEdgeStyle={&quot;curved&quot;:0,&quot;rounded&quot;:0};" vertex="1" parent="1">
          <mxGeometry x="718" y="440" width="10" height="20" as="geometry" />
        </mxCell>
        <mxCell id="2QZLSGWXenHFC3jgTNZq-49" value="" style="endArrow=none;dashed=1;html=1;rounded=0;fillColor=#dae8fc;strokeColor=#6c8ebf;" edge="1" parent="1" target="2QZLSGWXenHFC3jgTNZq-48">
          <mxGeometry width="50" height="50" relative="1" as="geometry">
            <mxPoint x="840.75" y="600" as="sourcePoint" />
            <mxPoint x="840" y="240" as="targetPoint" />
          </mxGeometry>
        </mxCell>
        <mxCell id="2QZLSGWXenHFC3jgTNZq-48" value="" style="html=1;points=[[0,0,0,0,5],[0,1,0,0,-5],[1,0,0,0,5],[1,1,0,0,-5]];perimeter=orthogonalPerimeter;outlineConnect=0;targetShapes=umlLifeline;portConstraint=eastwest;newEdgeStyle={&quot;curved&quot;:0,&quot;rounded&quot;:0};" vertex="1" parent="1">
          <mxGeometry x="835" y="450" width="10" height="40" as="geometry" />
        </mxCell>
        <mxCell id="2QZLSGWXenHFC3jgTNZq-51" value="" style="endArrow=classic;html=1;rounded=0;entryX=0;entryY=0;entryDx=0;entryDy=5;entryPerimeter=0;" edge="1" parent="1" target="2QZLSGWXenHFC3jgTNZq-45">
          <mxGeometry width="50" height="50" relative="1" as="geometry">
            <mxPoint x="600" y="445" as="sourcePoint" />
            <mxPoint x="730" y="430" as="targetPoint" />
          </mxGeometry>
        </mxCell>
        <mxCell id="2QZLSGWXenHFC3jgTNZq-52" value="" style="endArrow=classic;html=1;rounded=0;" edge="1" parent="1" target="2QZLSGWXenHFC3jgTNZq-48">
          <mxGeometry width="50" height="50" relative="1" as="geometry">
            <mxPoint x="730" y="450" as="sourcePoint" />
            <mxPoint x="605" y="340" as="targetPoint" />
          </mxGeometry>
        </mxCell>
        <mxCell id="2QZLSGWXenHFC3jgTNZq-53" value="学生データ登録" style="text;html=1;align=center;verticalAlign=middle;whiteSpace=wrap;rounded=0;" vertex="1" parent="1">
          <mxGeometry x="750" y="420" width="90" height="30" as="geometry" />
        </mxCell>
        <mxCell id="2QZLSGWXenHFC3jgTNZq-54" value="学生データ入力()" style="text;html=1;align=center;verticalAlign=middle;whiteSpace=wrap;rounded=0;" vertex="1" parent="1">
          <mxGeometry x="305" y="400" width="130" height="30" as="geometry" />
        </mxCell>
        <mxCell id="2QZLSGWXenHFC3jgTNZq-55" value="表示()" style="text;html=1;align=center;verticalAlign=middle;whiteSpace=wrap;rounded=0;" vertex="1" parent="1">
          <mxGeometry x="465" y="290" width="60" height="30" as="geometry" />
        </mxCell>
        <mxCell id="2QZLSGWXenHFC3jgTNZq-56" value="起動()" style="text;html=1;align=center;verticalAlign=middle;whiteSpace=wrap;rounded=0;" vertex="1" parent="1">
          <mxGeometry x="620" y="420" width="60" height="30" as="geometry" />
        </mxCell>
      </root>
    </mxGraphModel>
  </diagram>
</mxfile>
